<svg width="136" height="40" viewBox="0 0 136 40" fill="none" xmlns="http://www.w3.org/2000/svg">
<g clip-path="url(#clip0_67_342)">
<path fill-rule="evenodd" clip-rule="evenodd" d="M25.0399 17.8526H25.103C25.5997 17.8526 26.0018 18.2547 26.0018 18.7514C26.0018 18.8894 25.9702 19.0195 25.915 19.1377V19.1456C23.9795 23.3321 19.5171 27.1085 14.897 27.1085H10.0719C9.42545 27.1085 9.25594 27.4042 9.25594 27.9403V30.0178C9.25594 31.4645 9.25594 31.8824 8.00237 33.1359L1.37578 39.7586H1.37183L1.35607 39.7783C1.32453 39.8098 1.28905 39.8374 1.24963 39.8611H1.24175C1.20627 39.8926 1.16291 39.9123 1.12348 39.9281L1.11166 39.932C1.06435 39.9518 1.01311 39.9675 0.961861 39.9793C0.906672 39.9912 0.855425 39.9951 0.804179 39.9951C0.697743 39.9951 0.591308 39.9715 0.496699 39.932H0.488814C0.394205 39.8887 0.30748 39.8295 0.236523 39.7586C0.161624 39.6876 0.102493 39.597 0.0630728 39.4984C0.0236523 39.4038 0 39.2974 0 39.1909V28.642C0 27.9955 0.0946092 27.4594 0.291712 26.9824C0.488814 26.5015 0.78841 26.0836 1.20233 25.6697L7.33616 19.5359C8.17582 18.6962 8.86567 18.2744 9.70139 18.0615C10.5253 17.8487 11.4674 17.8447 12.8196 17.8447H25.0478L25.0399 17.8526Z" fill="#CC5500"/>
<path fill-rule="evenodd" clip-rule="evenodd" d="M8.858 9.57084L8.39284 10.0321L7.32848 11.0807L1.443 16.9661C1.35627 17.0529 1.26955 17.1278 1.171 17.1829C1.06456 17.2421 0.946301 17.2736 0.804387 17.2736C0.662473 17.2736 0.532385 17.2381 0.418066 17.1711C0.299804 17.1041 0.197311 17.0095 0.126354 16.8952C0.00415039 16.6981 0.00415039 16.5601 0.00415039 16.363V10.8835C0.00415039 9.43681 0.00415039 9.01896 1.25772 7.76538L7.87643 1.14668H7.88037L7.89614 1.12697C7.92767 1.09543 7.96315 1.06784 8.00257 1.04419H8.01046C8.04594 1.01265 8.0893 0.992939 8.12872 0.977171L8.14054 0.973229C8.18785 0.953519 8.2391 0.937751 8.29034 0.925924C8.34553 0.914098 8.39678 0.910156 8.44803 0.910156C8.55446 0.910156 8.6609 0.933809 8.7555 0.973229H8.76339C8.858 1.01659 8.94472 1.07572 9.01568 1.14668C9.08664 1.21764 9.14971 1.3083 9.18913 1.40685C9.22855 1.50146 9.2522 1.6079 9.2522 1.71433V7.66289V8.62869C9.2522 8.99925 9.10241 9.33432 8.858 9.57479V9.57084Z" fill="#FF7C1F"/>
<path fill-rule="evenodd" clip-rule="evenodd" d="M18.8156 8.29408C18.5633 8.04573 18.2204 7.88805 17.838 7.88805H10.3008L10.2219 7.85651C10.1825 7.81709 10.1825 7.75796 10.2219 7.71854L10.8645 7.07204L17.7079 0.236523C17.7789 0.165566 17.8695 0.106435 17.972 0.0630728C18.0193 0.0433626 18.0706 0.0275944 18.1218 0.0157682C18.1731 0.0078841 18.2243 0 18.2756 0H26.2976C26.4041 0 26.5105 0.0236523 26.6051 0.0630728H26.613C26.7076 0.106435 26.7943 0.165566 26.8653 0.236523H26.8692L26.8732 0.244407C26.9441 0.315364 27.0033 0.402089 27.0427 0.496699V0.504583C27.086 0.599192 27.1058 0.705627 27.1058 0.812063V8.83414C27.1058 8.88538 27.1018 8.93663 27.09 8.98788C27.0782 9.03912 27.0624 9.09037 27.0427 9.13768C26.9993 9.24017 26.9402 9.32689 26.8692 9.40179L20.0337 16.2373L19.3912 16.8799C19.3517 16.9232 19.2926 16.9232 19.2532 16.8799L19.2256 16.801V9.26382C19.2217 8.88538 19.064 8.53848 18.8156 8.28619V8.29408Z" fill="#FFAC71"/>
<path fill-rule="evenodd" clip-rule="evenodd" d="M119.882 22.1266C120.595 19.6825 122.74 18.0269 125.188 18.0269C127.636 18.0269 129.93 19.6825 130.683 22.1266H119.882ZM135.386 25.7769C135.5 25.024 135.536 24.4603 135.536 24.0464C135.536 21.1096 134.558 18.6655 132.563 16.6708C130.608 14.6761 128.16 13.6985 125.263 13.6985C122.365 13.6985 119.921 14.6761 117.926 16.6708C115.971 18.6261 114.99 21.0741 114.99 24.0464C114.99 27.0187 116.007 29.4667 118.001 31.4614C120.035 33.4166 122.554 34.3982 125.566 34.3982C129.516 34.3982 132.902 32.443 134.712 29.3169L130.159 28.0003C129.031 29.3918 127.486 30.0698 125.566 30.0698C122.819 30.0698 120.56 28.3393 119.846 25.7809H135.39L135.386 25.7769ZM112.471 33.8306V5.60547H107.803V33.8266H112.471V33.8306ZM84.1746 18.3265V33.8306H88.8775V18.3265H96.0638V33.8306H100.767V18.3265H105.434V14.2622H100.767V12.4568C100.767 11.1007 101.784 10.0876 103.136 10.0876H105.43V5.60941H102.797C100.877 5.60941 99.2963 6.21254 97.9797 7.37939C96.6985 8.54624 96.0599 10.0521 96.0599 11.8181V14.2662H88.8735V12.4607C88.8735 11.1046 89.8906 10.0915 91.2427 10.0915H93.537V5.61335H90.9037C88.9839 5.61335 87.4031 6.21649 86.0865 7.38333C84.8053 8.55018 84.1667 10.056 84.1667 11.8221V14.2701H81.1944V18.3344H84.1667L84.1746 18.3265ZM72.5455 20.0176C73.5626 21.1096 74.0869 22.4262 74.0869 24.0424C74.0869 25.6587 73.5586 26.9793 72.5455 28.0673C71.5285 29.1592 70.2867 29.6835 68.8203 29.6835C67.3539 29.6835 66.0727 29.1553 65.0556 28.0673C64.0386 26.9753 63.5498 25.6587 63.5498 24.0424C63.5498 22.4262 64.0386 21.1056 65.0556 20.0176C66.0727 18.9257 67.3499 18.4014 68.8203 18.4014C70.2907 18.4014 71.5285 18.9296 72.5455 20.0176ZM68.2172 13.6985C65.509 13.6985 63.2502 14.6761 61.4053 16.6708C59.5998 18.6261 58.6971 21.0741 58.6971 24.0464C58.6971 27.0187 59.5998 29.4667 61.4053 31.4614C63.2502 33.4166 65.509 34.3982 68.2172 34.3982C70.4365 34.3982 72.4312 33.6847 74.1618 32.2892V33.8306H78.8292V14.2622H74.1618V15.8036C72.4312 14.412 70.4365 13.6946 68.2172 13.6946V13.6985ZM48.7277 12.1532C50.947 12.1532 52.5672 13.7695 52.5672 15.9928C52.5672 18.2161 50.951 19.8678 48.7277 19.8678H41.9552V12.1532H48.7277ZM41.9552 24.5352H48.7277C51.3255 24.5352 53.4699 23.7074 55.2005 22.0911C56.9705 20.4749 57.8338 18.4408 57.8338 15.9967C57.8338 13.5526 56.9665 11.558 55.2005 9.93778C53.4699 8.32154 51.3255 7.49371 48.7277 7.49371H36.9133V33.8345H41.9552V24.5391V24.5352Z" fill="#181818"/>
</g>
<defs>
<clipPath id="clip0_67_342">
<rect width="135.536" height="40" fill="white"/>
</clipPath>
</defs>
</svg>
