<svg width="109" height="32" viewBox="0 0 109 32" fill="none" xmlns="http://www.w3.org/2000/svg">
<g clip-path="url(#clip0_67_328)">
<path fill-rule="evenodd" clip-rule="evenodd" d="M20.0319 14.2829H20.0824C20.4797 14.2829 20.8014 14.6046 20.8014 15.0019C20.8014 15.1123 20.7762 15.2164 20.732 15.311V15.3173C19.1836 18.6665 15.6137 21.6877 11.9176 21.6877H8.05755C7.54036 21.6877 7.40475 21.9242 7.40475 22.3531V24.0151C7.40475 25.1724 7.40475 25.5067 6.40189 26.5096L1.10062 31.8077H1.09747L1.08485 31.8235C1.05962 31.8487 1.03124 31.8708 0.999704 31.8897H0.993397C0.965014 31.9149 0.930324 31.9307 0.898788 31.9433L0.889327 31.9465C0.851483 31.9622 0.810486 31.9748 0.769489 31.9843C0.725338 31.9938 0.68434 31.9969 0.643343 31.9969C0.558195 31.9969 0.473046 31.978 0.397359 31.9465H0.391052C0.315364 31.9118 0.245984 31.8645 0.189219 31.8077C0.129299 31.7509 0.0819947 31.6784 0.0504583 31.5996C0.0189218 31.5239 0 31.4387 0 31.3536V22.9144C0 22.3972 0.0756874 21.9683 0.233369 21.5868C0.391052 21.202 0.630728 20.8677 0.961861 20.5366L5.86893 15.6295C6.54065 14.9578 7.09254 14.6204 7.76111 14.4501C8.42022 14.2798 9.17394 14.2766 10.2556 14.2766H20.0382L20.0319 14.2829Z" fill="white"/>
<path fill-rule="evenodd" clip-rule="evenodd" d="M7.08625 7.65707L6.71412 8.02604L5.86264 8.86491L1.15425 13.5733C1.08487 13.6427 1.01549 13.7026 0.936652 13.7467C0.851503 13.7941 0.756894 13.8193 0.643363 13.8193C0.529832 13.8193 0.425762 13.7909 0.334306 13.7373C0.239697 13.6837 0.157702 13.608 0.100937 13.5165C0.00317383 13.3588 0.00317383 13.2485 0.00317383 13.0908V8.70723C0.00317383 7.54984 0.00317383 7.21556 1.00603 6.2127L6.301 0.917734H6.30415L6.31676 0.901966C6.34199 0.876737 6.37038 0.854661 6.40191 0.835739H6.40822C6.4366 0.81051 6.47129 0.794742 6.50283 0.782128L6.51229 0.778974C6.55013 0.763206 6.59113 0.750591 6.63213 0.74113C6.67628 0.731669 6.71728 0.728516 6.75827 0.728516C6.84342 0.728516 6.92857 0.747438 7.00426 0.778974H7.01057C7.08625 0.813664 7.15563 0.860969 7.2124 0.917734C7.26916 0.9745 7.31962 1.04703 7.35116 1.12587C7.38269 1.20156 7.40162 1.28671 7.40162 1.37186V6.1307V6.90335C7.40162 7.19979 7.28178 7.46785 7.08625 7.66022V7.65707Z" fill="white"/>
<path fill-rule="evenodd" clip-rule="evenodd" d="M15.0522 6.63526C14.8503 6.43658 14.576 6.31044 14.2701 6.31044H8.24029L8.17722 6.28521C8.14568 6.25367 8.14568 6.20637 8.17722 6.17483L8.69126 5.65763L14.166 0.189219C14.2227 0.132453 14.2953 0.0851483 14.3773 0.0504583C14.4151 0.0346901 14.4561 0.0220755 14.4971 0.0126146C14.5381 0.00630728 14.5791 0 14.6201 0H21.0378C21.1229 0 21.2081 0.0189218 21.2838 0.0504583H21.2901C21.3657 0.0851483 21.4351 0.132453 21.4919 0.189219H21.495L21.4982 0.195526C21.555 0.252291 21.6023 0.321671 21.6338 0.397359V0.403666C21.6685 0.479353 21.6843 0.564502 21.6843 0.64965V7.06731C21.6843 7.10831 21.6811 7.1493 21.6716 7.1903C21.6622 7.2313 21.6496 7.2723 21.6338 7.31014C21.5991 7.39214 21.5518 7.46152 21.495 7.52144L16.0266 12.9898L15.5126 13.5039C15.4811 13.5386 15.4337 13.5386 15.4022 13.5039L15.3801 13.4408V7.41106C15.377 7.10831 15.2508 6.83079 15.0522 6.62895V6.63526Z" fill="white"/>
<path fill-rule="evenodd" clip-rule="evenodd" d="M95.9052 17.7014C96.476 15.7462 98.1916 14.4216 100.15 14.4216C102.108 14.4216 103.944 15.7462 104.546 17.7014H95.9052ZM108.308 20.6217C108.4 20.0193 108.428 19.5684 108.428 19.2372C108.428 16.8878 107.646 14.9325 106.05 13.3368C104.486 11.741 102.528 10.9589 100.21 10.9589C97.892 10.9589 95.9367 11.741 94.341 13.3368C92.7768 14.901 91.9915 16.8594 91.9915 19.2372C91.9915 21.6151 92.8052 23.5735 94.4009 25.1692C96.0282 26.7334 98.0434 27.5187 100.453 27.5187C103.613 27.5187 106.322 25.9545 107.769 23.4537L104.127 22.4003C103.225 23.5136 101.989 24.056 100.453 24.056C98.2547 24.056 96.4476 22.6715 95.8768 20.6248H108.312L108.308 20.6217ZM89.9764 27.0646V4.4845H86.2425V27.0614H89.9764V27.0646ZM67.3395 14.6613V27.0646H71.1018V14.6613H76.8509V27.0646H80.6132V14.6613H84.3471V11.4099H80.6132V9.96553C80.6132 8.88067 81.4268 8.07019 82.5085 8.07019H84.344V4.48765H82.2373C80.7015 4.48765 79.4369 4.97016 78.3836 5.90364C77.3586 6.83711 76.8478 8.0418 76.8478 9.45464V11.413H71.0987V9.96868C71.0987 8.88383 71.9123 8.07334 72.994 8.07334H74.8294V4.4908H72.7228C71.187 4.4908 69.9224 4.97331 68.869 5.90679C67.8441 6.84027 67.3332 8.04496 67.3332 9.45779V11.4162H64.9554V14.6676H67.3332L67.3395 14.6613ZM58.0363 16.0142C58.8499 16.8878 59.2694 17.9411 59.2694 19.2341C59.2694 20.5271 58.8468 21.5835 58.0363 22.4539C57.2226 23.3275 56.2292 23.7469 55.0561 23.7469C53.8829 23.7469 52.858 23.3244 52.0444 22.4539C51.2307 21.5804 50.8397 20.5271 50.8397 19.2341C50.8397 17.9411 51.2307 16.8846 52.0444 16.0142C52.858 15.1407 53.8798 14.7212 55.0561 14.7212C56.2324 14.7212 57.2226 15.1438 58.0363 16.0142ZM54.5736 10.9589C52.407 10.9589 50.6 11.741 49.1241 13.3368C47.6797 14.901 46.9575 16.8594 46.9575 19.2372C46.9575 21.6151 47.6797 23.5735 49.1241 25.1692C50.6 26.7334 52.407 27.5187 54.5736 27.5187C56.3491 27.5187 57.9448 26.9479 59.3293 25.8315V27.0646H63.0632V11.4099H59.3293V12.643C57.9448 11.5297 56.3491 10.9558 54.5736 10.9558V10.9589ZM38.982 9.7227C40.7575 9.7227 42.0536 11.0157 42.0536 12.7943C42.0536 14.573 40.7606 15.8944 38.982 15.8944H33.564V9.7227H38.982ZM33.564 19.6283H38.982C41.0602 19.6283 42.7758 18.966 44.1603 17.673C45.5762 16.38 46.2669 14.7528 46.2669 12.7975C46.2669 10.8422 45.5731 9.2465 44.1603 7.95035C42.7758 6.65736 41.0602 5.99509 38.982 5.99509H29.5305V27.0677H33.564V19.6314V19.6283Z" fill="white"/>
</g>
<defs>
<clipPath id="clip0_67_328">
<rect width="108.429" height="32" fill="white"/>
</clipPath>
</defs>
</svg>
